<svg xmlns="http://www.w3.org/2000/svg" xmlns:xlink="http://www.w3.org/1999/xlink" width="472" zoomAndPan="magnify" viewBox="0 0 354 189.000001" height="252" preserveAspectRatio="xMidYMid meet" version="1.2"><defs><clipPath id="e8bdafcebc"><path d="M 331 76 L 353 76 L 353 92 L 331 92 Z M 331 76 "/></clipPath><clipPath id="74463652ec"><path d="M 333.214844 73.472656 L 353.144531 76.40625 L 350.210938 96.332031 L 330.285156 93.402344 Z M 333.214844 73.472656 "/></clipPath><clipPath id="ea55f243bb"><path d="M 333.214844 73.472656 L 353.144531 76.40625 L 350.210938 96.332031 L 330.285156 93.402344 Z M 333.214844 73.472656 "/></clipPath><clipPath id="b7f2548a73"><path d="M 286 15 L 300 15 L 300 43 L 286 43 Z M 286 15 "/></clipPath><clipPath id="fa0909a7bc"><path d="M 291.328125 14.355469 L 300.097656 16.125 L 294.648438 43.148438 L 285.882812 41.382812 Z M 291.328125 14.355469 "/></clipPath><clipPath id="2fa5006798"><path d="M 295.710938 15.242188 C 296.875 15.476562 297.898438 16.160156 298.554688 17.148438 C 299.210938 18.136719 299.449219 19.347656 299.214844 20.507812 L 295.535156 38.757812 C 295.300781 39.917969 294.613281 40.941406 293.625 41.597656 C 292.636719 42.253906 291.429688 42.492188 290.265625 42.257812 C 289.105469 42.023438 288.082031 41.335938 287.425781 40.347656 C 286.769531 39.359375 286.53125 38.152344 286.765625 36.988281 L 290.445312 18.742188 C 290.679688 17.578125 291.367188 16.558594 292.355469 15.898438 C 293.34375 15.242188 294.550781 15.007812 295.710938 15.242188 Z M 295.710938 15.242188 "/></clipPath><clipPath id="1dfde0ee50"><path d="M 251 43 L 311 43 L 311 125 L 251 125 Z M 251 43 "/></clipPath><clipPath id="a44b54413a"><path d="M 255.132812 40.902344 L 316.007812 46.96875 L 307.132812 136.054688 L 246.257812 129.988281 Z M 255.132812 40.902344 "/></clipPath><clipPath id="c1556518ff"><path d="M 255.132812 40.902344 L 316.007812 46.96875 L 307.132812 136.054688 L 246.257812 129.988281 Z M 255.132812 40.902344 "/></clipPath><clipPath id="feddc3e95f"><path d="M 180 37 L 325 37 L 325 76 L 180 76 Z M 180 37 "/></clipPath><clipPath id="d748701ecb"><path d="M 178.394531 67.621094 L 322.644531 29.457031 L 330.277344 58.304688 L 186.03125 96.46875 Z M 178.394531 67.621094 "/></clipPath><clipPath id="a3febcf8d2"><path d="M 178.394531 67.621094 L 322.644531 29.457031 L 330.277344 58.304688 L 186.03125 96.46875 Z M 178.394531 67.621094 "/></clipPath><clipPath id="700531f2bc"><path d="M 180 55 L 330 55 L 330 94 L 180 94 Z M 180 55 "/></clipPath><clipPath id="fe3a22d200"><path d="M 181.402344 53.152344 L 329.992188 66.753906 L 327.269531 96.46875 L 178.679688 82.871094 Z M 181.402344 53.152344 "/></clipPath><clipPath id="38ead05cbb"><path d="M 181.402344 53.152344 L 329.992188 66.753906 L 327.269531 96.46875 L 178.679688 82.871094 Z M 181.402344 53.152344 "/></clipPath><clipPath id="a54d5dd9c5"><path d="M 186 58 L 327 58 L 327 122 L 186 122 Z M 186 58 "/></clipPath><clipPath id="d8080871e6"><path d="M 189.273438 52.429688 L 329.5625 103.253906 L 319.398438 131.3125 L 179.109375 80.488281 Z M 189.273438 52.429688 "/></clipPath><clipPath id="4dbd36af6c"><path d="M 189.273438 52.429688 L 329.5625 103.253906 L 319.398438 131.3125 L 179.109375 80.488281 Z M 189.273438 52.429688 "/></clipPath></defs><g id="444087387d"><g clip-rule="nonzero" clip-path="url(#e8bdafcebc)"><g clip-rule="nonzero" clip-path="url(#74463652ec)"><g clip-rule="nonzero" clip-path="url(#ea55f243bb)"><path style=" stroke:none;fill-rule:evenodd;fill:#f98619;fill-opacity:1;" d="M 331.480469 86.933594 C 331.777344 83.304688 333.46875 80.664062 335.210938 79.238281 C 336.949219 77.816406 339.082031 77.328125 342.164062 77.226562 C 345.246094 77.125 349.382812 78.734375 352.507812 76.339844 C 350.382812 93.773438 337.394531 94.414062 331.9375 88.585938 C 334.472656 86.3125 337.152344 84.824219 340.628906 84.105469 C 343.128906 83.589844 345.335938 83.476562 347.914062 81.257812 C 344.367188 82.972656 341.746094 82.753906 339.738281 83.074219 C 336.757812 83.554688 334.328125 84.429688 331.480469 86.933594 Z M 331.480469 86.933594 "/></g></g></g><g clip-rule="nonzero" clip-path="url(#b7f2548a73)"><g clip-rule="nonzero" clip-path="url(#fa0909a7bc)"><g clip-rule="nonzero" clip-path="url(#2fa5006798)"><path style=" stroke:none;fill-rule:nonzero;fill:#f98619;fill-opacity:1;" d="M 291.328125 14.355469 L 300.097656 16.125 L 294.648438 43.148438 L 285.882812 41.382812 Z M 291.328125 14.355469 "/></g></g></g><g clip-rule="nonzero" clip-path="url(#1dfde0ee50)"><g clip-rule="nonzero" clip-path="url(#a44b54413a)"><g clip-rule="nonzero" clip-path="url(#c1556518ff)"><path style=" stroke:none;fill-rule:nonzero;fill:#f98619;fill-opacity:1;" d="M 278.394531 121.136719 C 255.910156 130.910156 249.265625 114.191406 251.792969 105.003906 C 255.488281 91.574219 250.394531 88.640625 253.171875 68.382812 L 253.195312 68.386719 C 255.3125 53.210938 269.066406 42.289062 284.449219 43.824219 C 300.214844 45.394531 311.722656 59.449219 310.152344 75.214844 C 310.152344 75.214844 309.640625 107.558594 278.394531 121.136719 Z M 278.394531 121.136719 "/></g></g></g><g clip-rule="nonzero" clip-path="url(#feddc3e95f)"><g clip-rule="nonzero" clip-path="url(#d748701ecb)"><g clip-rule="nonzero" clip-path="url(#a3febcf8d2)"><path style=" stroke:none;fill-rule:nonzero;fill:#fcffc8;fill-opacity:1;" d="M 180.402344 74.738281 C 181.578125 73.5 182.855469 72.394531 184.179688 71.335938 C 185.503906 70.28125 186.886719 69.300781 188.304688 68.371094 C 189.726562 67.453125 191.199219 66.609375 192.699219 65.808594 C 193.070312 65.609375 193.457031 65.425781 193.832031 65.234375 C 194.214844 65.050781 194.589844 64.84375 194.976562 64.675781 C 195.753906 64.332031 196.515625 63.953125 197.304688 63.644531 C 203.570312 61.003906 210.304688 59.460938 217.117188 58.988281 C 220.523438 58.738281 223.949219 58.816406 227.355469 59.085938 L 228.632812 59.199219 L 229.269531 59.253906 C 229.480469 59.277344 229.695312 59.308594 229.90625 59.335938 L 232.449219 59.671875 C 233.292969 59.792969 234.132812 59.964844 234.976562 60.109375 L 236.238281 60.335938 C 236.65625 60.414062 237.070312 60.519531 237.488281 60.609375 L 239.984375 61.183594 C 240.8125 61.402344 241.632812 61.636719 242.457031 61.863281 L 247.296875 63.226562 C 250.515625 64.058594 253.75 64.832031 257.023438 65.371094 L 258.25 65.585938 C 258.65625 65.660156 259.070312 65.707031 259.476562 65.765625 L 261.941406 66.109375 C 262.765625 66.199219 263.585938 66.273438 264.410156 66.355469 C 264.820312 66.394531 265.234375 66.445312 265.644531 66.46875 L 268.121094 66.617188 C 268.53125 66.648438 268.945312 66.667969 269.355469 66.667969 L 271.828125 66.726562 C 272.652344 66.730469 273.476562 66.703125 274.300781 66.695312 C 274.710938 66.683594 275.125 66.691406 275.53125 66.667969 L 276.761719 66.597656 C 280.042969 66.433594 283.308594 66.085938 286.523438 65.5 C 287.332031 65.386719 288.125 65.199219 288.925781 65.039062 L 290.121094 64.789062 L 291.308594 64.492188 C 292.097656 64.296875 292.894531 64.117188 293.671875 63.871094 L 294.84375 63.523438 L 295.425781 63.351562 C 295.621094 63.289062 295.808594 63.21875 296.003906 63.148438 C 302.183594 61.136719 308.035156 58.050781 312.980469 53.789062 L 313.21875 53.59375 L 313.441406 53.386719 L 313.890625 52.96875 L 314.789062 52.136719 C 314.945312 52 315.085938 51.855469 315.226562 51.703125 L 315.648438 51.261719 L 316.503906 50.378906 C 317.058594 49.777344 317.578125 49.144531 318.121094 48.523438 C 318.632812 47.882812 319.117188 47.214844 319.625 46.566406 C 321.570312 43.898438 323.171875 40.96875 324.484375 37.875 C 324.523438 37.773438 324.636719 37.730469 324.734375 37.773438 C 324.820312 37.808594 324.867188 37.902344 324.847656 37.992188 C 324.070312 41.300781 322.777344 44.5 321.085938 47.503906 C 320.636719 48.234375 320.195312 48.980469 319.726562 49.707031 C 319.230469 50.40625 318.75 51.128906 318.226562 51.820312 C 317.6875 52.492188 317.15625 53.179688 316.582031 53.832031 L 315.703125 54.792969 L 315.261719 55.269531 L 315.042969 55.511719 L 314.8125 55.738281 C 309.914062 60.679688 303.789062 64.375 297.257812 66.734375 C 297.050781 66.808594 296.851562 66.886719 296.644531 66.960938 L 296.023438 67.160156 L 294.785156 67.5625 C 293.960938 67.84375 293.121094 68.054688 292.28125 68.285156 C 291.863281 68.398438 291.445312 68.511719 291.023438 68.621094 L 289.75 68.894531 C 288.902344 69.070312 288.058594 69.269531 287.203125 69.394531 L 285.921875 69.605469 C 285.496094 69.667969 285.066406 69.75 284.636719 69.792969 L 282.058594 70.082031 C 280.339844 70.210938 278.617188 70.335938 276.894531 70.351562 L 275.605469 70.375 C 275.175781 70.382812 274.746094 70.359375 274.3125 70.355469 C 273.453125 70.332031 272.59375 70.328125 271.738281 70.289062 L 269.167969 70.128906 C 268.738281 70.109375 268.3125 70.070312 267.882812 70.027344 L 266.605469 69.898438 L 265.324219 69.773438 C 264.898438 69.730469 264.476562 69.664062 264.054688 69.609375 L 261.507812 69.261719 L 258.980469 68.835938 C 258.558594 68.761719 258.136719 68.703125 257.71875 68.617188 L 256.460938 68.359375 C 253.109375 67.714844 249.8125 66.839844 246.539062 65.90625 L 241.699219 64.410156 C 240.90625 64.171875 240.113281 63.921875 239.320312 63.691406 L 236.910156 63.074219 C 236.507812 62.972656 236.109375 62.859375 235.703125 62.769531 L 234.488281 62.511719 C 233.675781 62.347656 232.871094 62.152344 232.054688 62.015625 L 229.601562 61.609375 C 229.394531 61.578125 229.191406 61.542969 228.988281 61.511719 L 228.371094 61.441406 L 227.136719 61.292969 C 223.847656 60.925781 220.523438 60.75 217.210938 60.890625 C 210.585938 61.113281 203.96875 62.371094 197.738281 64.734375 C 196.949219 65.011719 196.191406 65.355469 195.414062 65.667969 C 195.027344 65.820312 194.65625 66.003906 194.273438 66.171875 C 193.894531 66.347656 193.507812 66.511719 193.136719 66.699219 C 191.640625 67.429688 190.160156 68.210938 188.722656 69.0625 C 187.289062 69.914062 185.882812 70.828125 184.53125 71.8125 C 183.183594 72.800781 181.863281 73.847656 180.671875 75.003906 L 180.667969 75.011719 C 180.589844 75.085938 180.472656 75.082031 180.398438 75.007812 C 180.332031 74.929688 180.332031 74.8125 180.402344 74.738281 Z M 180.402344 74.738281 "/></g></g></g><g clip-rule="nonzero" clip-path="url(#700531f2bc)"><g clip-rule="nonzero" clip-path="url(#fe3a22d200)"><g clip-rule="nonzero" clip-path="url(#38ead05cbb)"><path style=" stroke:none;fill-rule:nonzero;fill:#fcffc8;fill-opacity:1;" d="M 180.847656 60.527344 C 182.375 59.765625 183.953125 59.167969 185.558594 58.625 C 187.167969 58.085938 188.800781 57.640625 190.453125 57.253906 C 192.105469 56.878906 193.777344 56.589844 195.457031 56.351562 C 195.878906 56.289062 196.300781 56.253906 196.722656 56.203125 C 197.140625 56.160156 197.566406 56.09375 197.988281 56.070312 C 198.835938 56.011719 199.679688 55.917969 200.527344 55.898438 C 207.320312 55.566406 214.175781 56.425781 220.734375 58.316406 C 224.023438 59.25 227.214844 60.496094 230.320312 61.921875 L 231.480469 62.460938 L 232.0625 62.734375 C 232.253906 62.828125 232.441406 62.929688 232.632812 63.027344 L 234.902344 64.214844 C 235.65625 64.617188 236.382812 65.070312 237.128906 65.492188 L 238.234375 66.136719 C 238.601562 66.355469 238.957031 66.59375 239.316406 66.824219 L 241.464844 68.21875 C 242.167969 68.707031 242.855469 69.207031 243.550781 69.703125 L 247.632812 72.644531 C 250.375 74.53125 253.144531 76.367188 256.035156 77.996094 L 257.113281 78.617188 C 257.46875 78.828125 257.84375 79.011719 258.207031 79.207031 L 260.402344 80.375 C 261.144531 80.742188 261.890625 81.09375 262.636719 81.453125 C 263.011719 81.628906 263.378906 81.816406 263.757812 81.984375 L 266.03125 82.96875 C 266.40625 83.136719 266.789062 83.296875 267.175781 83.441406 L 269.480469 84.34375 C 270.25 84.632812 271.035156 84.886719 271.808594 85.160156 C 272.203125 85.292969 272.585938 85.4375 272.976562 85.554688 L 274.15625 85.914062 C 277.296875 86.882812 280.484375 87.675781 283.703125 88.230469 C 284.5 88.402344 285.3125 88.496094 286.117188 88.621094 L 287.328125 88.796875 L 288.542969 88.921875 C 289.351562 89.007812 290.160156 89.117188 290.976562 89.148438 L 292.195312 89.226562 L 292.804688 89.261719 C 293.007812 89.269531 293.210938 89.269531 293.414062 89.269531 C 299.910156 89.5 306.464844 88.609375 312.574219 86.296875 L 312.863281 86.195312 L 313.144531 86.078125 L 313.707031 85.839844 L 314.835938 85.367188 C 315.03125 85.292969 315.210938 85.203125 315.394531 85.109375 L 315.945312 84.839844 L 317.050781 84.304688 C 317.777344 83.929688 318.484375 83.511719 319.207031 83.113281 C 319.90625 82.6875 320.589844 82.226562 321.289062 81.789062 C 324.03125 79.953125 326.539062 77.746094 328.832031 75.289062 C 328.90625 75.214844 329.027344 75.210938 329.105469 75.28125 C 329.171875 75.347656 329.183594 75.449219 329.132812 75.527344 C 327.273438 78.367188 324.957031 80.933594 322.339844 83.171875 C 321.667969 83.707031 321 84.253906 320.308594 84.777344 C 319.601562 85.265625 318.902344 85.777344 318.175781 86.246094 C 317.4375 86.695312 316.703125 87.160156 315.941406 87.574219 L 314.785156 88.171875 L 314.207031 88.472656 L 313.917969 88.621094 L 313.621094 88.757812 C 307.328125 91.722656 300.308594 93.09375 293.363281 93.066406 C 293.144531 93.070312 292.929688 93.074219 292.710938 93.070312 L 292.058594 93.046875 L 290.757812 92.996094 C 289.886719 92.980469 289.023438 92.890625 288.15625 92.820312 C 287.726562 92.78125 287.292969 92.746094 286.859375 92.703125 L 285.574219 92.523438 C 284.714844 92.398438 283.851562 92.296875 283.003906 92.121094 L 281.730469 91.878906 C 281.308594 91.792969 280.878906 91.722656 280.460938 91.613281 L 277.9375 91.003906 C 276.28125 90.535156 274.617188 90.0625 272.996094 89.488281 L 271.773438 89.0625 C 271.367188 88.925781 270.972656 88.757812 270.570312 88.605469 C 269.769531 88.285156 268.964844 87.988281 268.171875 87.660156 L 265.8125 86.628906 C 265.414062 86.460938 265.027344 86.277344 264.640625 86.089844 L 263.484375 85.53125 L 262.324219 84.976562 C 261.9375 84.792969 261.566406 84.582031 261.1875 84.382812 L 258.914062 83.1875 L 256.683594 81.921875 C 256.316406 81.707031 255.9375 81.507812 255.574219 81.28125 L 254.484375 80.609375 C 251.550781 78.855469 248.757812 76.902344 246.003906 74.902344 L 241.96875 71.835938 C 241.304688 71.339844 240.644531 70.835938 239.980469 70.34375 L 237.929688 68.941406 C 237.585938 68.707031 237.25 68.464844 236.902344 68.242188 L 235.847656 67.582031 C 235.140625 67.152344 234.449219 66.691406 233.730469 66.28125 L 231.5625 65.058594 C 231.382812 64.960938 231.203125 64.855469 231.023438 64.757812 L 230.46875 64.476562 L 229.359375 63.917969 C 226.390625 62.445312 223.332031 61.140625 220.171875 60.136719 C 213.871094 58.074219 207.226562 56.988281 200.558594 57.070312 C 199.726562 57.058594 198.894531 57.125 198.058594 57.148438 C 197.640625 57.160156 197.230469 57.207031 196.8125 57.234375 C 196.398438 57.269531 195.980469 57.292969 195.566406 57.339844 C 193.90625 57.511719 192.253906 57.738281 190.609375 58.046875 C 188.96875 58.355469 187.335938 58.730469 185.726562 59.191406 C 184.125 59.660156 182.527344 60.191406 181.007812 60.867188 L 181 60.875 C 180.902344 60.917969 180.792969 60.875 180.75 60.777344 C 180.714844 60.679688 180.753906 60.570312 180.847656 60.527344 Z M 180.847656 60.527344 "/></g></g></g><g clip-rule="nonzero" clip-path="url(#a54d5dd9c5)"><g clip-rule="nonzero" clip-path="url(#d8080871e6)"><g clip-rule="nonzero" clip-path="url(#4dbd36af6c)"><path style=" stroke:none;fill-rule:nonzero;fill:#fcffc8;fill-opacity:1;" d="M 186.867188 59.425781 C 188.539062 59.074219 190.21875 58.894531 191.910156 58.777344 C 193.601562 58.667969 195.292969 58.648438 196.988281 58.695312 C 198.683594 58.746094 200.375 58.894531 202.058594 59.089844 C 202.480469 59.136719 202.898438 59.207031 203.320312 59.265625 C 203.738281 59.328125 204.164062 59.375 204.578125 59.457031 C 205.414062 59.617188 206.253906 59.738281 207.082031 59.933594 C 213.734375 61.335938 220.148438 63.90625 226.015625 67.398438 C 228.957031 69.132812 231.726562 71.148438 234.371094 73.3125 L 235.359375 74.132812 L 235.851562 74.542969 C 236.011719 74.679688 236.167969 74.828125 236.328125 74.972656 L 238.222656 76.695312 C 238.851562 77.277344 239.441406 77.894531 240.050781 78.492188 L 240.960938 79.398438 C 241.257812 79.703125 241.539062 80.023438 241.832031 80.335938 L 243.558594 82.234375 C 244.113281 82.882812 244.652344 83.542969 245.199219 84.199219 L 248.402344 88.078125 C 250.574219 90.59375 252.789062 93.074219 255.171875 95.382812 L 256.058594 96.257812 C 256.347656 96.550781 256.664062 96.824219 256.964844 97.105469 L 258.792969 98.789062 C 259.417969 99.332031 260.050781 99.863281 260.683594 100.398438 C 261 100.664062 261.308594 100.941406 261.632812 101.195312 L 262.605469 101.960938 L 263.582031 102.726562 C 263.902344 102.988281 264.230469 103.238281 264.566406 103.476562 L 266.570312 104.929688 C 267.242188 105.40625 267.933594 105.851562 268.617188 106.3125 C 268.960938 106.539062 269.296875 106.777344 269.644531 106.992188 L 270.695312 107.636719 C 273.488281 109.371094 276.367188 110.945312 279.339844 112.296875 C 280.070312 112.664062 280.832031 112.960938 281.578125 113.285156 L 282.703125 113.761719 L 283.847656 114.195312 C 284.609375 114.480469 285.363281 114.789062 286.144531 115.027344 L 287.304688 115.410156 L 287.882812 115.601562 C 288.078125 115.660156 288.273438 115.710938 288.472656 115.765625 C 294.699219 117.632812 301.261719 118.433594 307.757812 117.746094 L 308.066406 117.722656 L 308.367188 117.679688 L 308.972656 117.589844 L 310.183594 117.417969 C 310.390625 117.394531 310.589844 117.355469 310.789062 117.3125 L 311.390625 117.191406 L 312.597656 116.953125 C 313.394531 116.773438 314.183594 116.546875 314.984375 116.347656 C 315.769531 116.113281 316.546875 115.839844 317.332031 115.59375 C 320.453125 114.511719 323.4375 113.015625 326.277344 111.21875 C 326.367188 111.164062 326.484375 111.191406 326.542969 111.28125 C 326.589844 111.359375 326.578125 111.464844 326.507812 111.527344 C 323.988281 113.800781 321.101562 115.695312 318 117.199219 C 317.210938 117.542969 316.425781 117.90625 315.628906 118.234375 C 314.820312 118.527344 314.015625 118.847656 313.191406 119.117188 C 312.363281 119.363281 311.535156 119.625 310.691406 119.832031 L 309.421875 120.121094 L 308.789062 120.261719 L 308.472656 120.335938 L 308.152344 120.390625 C 301.308594 121.664062 294.171875 121.210938 287.460938 119.425781 C 287.25 119.371094 287.039062 119.320312 286.828125 119.261719 L 286.207031 119.074219 L 284.957031 118.695312 C 284.121094 118.460938 283.308594 118.152344 282.488281 117.863281 C 282.078125 117.71875 281.667969 117.574219 281.261719 117.425781 L 280.0625 116.921875 C 279.265625 116.585938 278.457031 116.269531 277.679688 115.882812 L 276.507812 115.328125 C 276.121094 115.132812 275.722656 114.957031 275.347656 114.746094 L 273.0625 113.519531 C 271.578125 112.644531 270.089844 111.765625 268.664062 110.796875 L 267.59375 110.078125 C 267.234375 109.84375 266.894531 109.578125 266.542969 109.328125 C 265.851562 108.820312 265.144531 108.328125 264.460938 107.804688 L 262.441406 106.210938 C 262.101562 105.949219 261.773438 105.675781 261.445312 105.394531 L 260.46875 104.5625 L 259.488281 103.730469 C 259.160156 103.453125 258.851562 103.15625 258.535156 102.867188 L 256.640625 101.136719 L 254.804688 99.34375 C 254.503906 99.042969 254.1875 98.753906 253.894531 98.441406 L 253.007812 97.515625 C 250.617188 95.078125 248.410156 92.480469 246.253906 89.84375 L 243.125 85.859375 C 242.609375 85.210938 242.101562 84.554688 241.582031 83.910156 L 239.953125 82.03125 C 239.679688 81.71875 239.417969 81.398438 239.136719 81.09375 L 238.28125 80.191406 C 237.707031 79.59375 237.15625 78.972656 236.566406 78.394531 L 234.777344 76.667969 C 234.628906 76.523438 234.484375 76.378906 234.332031 76.234375 L 233.867188 75.824219 L 232.933594 75.003906 C 230.441406 72.824219 227.8125 70.785156 225.007812 69.015625 C 219.4375 65.421875 213.28125 62.6875 206.8125 61.078125 C 206.011719 60.855469 205.191406 60.707031 204.375 60.519531 C 203.96875 60.425781 203.558594 60.367188 203.148438 60.285156 C 202.738281 60.214844 202.328125 60.128906 201.914062 60.070312 C 200.265625 59.816406 198.609375 59.617188 196.941406 59.5 C 195.273438 59.382812 193.601562 59.332031 191.929688 59.371094 C 190.257812 59.414062 188.578125 59.523438 186.9375 59.796875 L 186.929688 59.796875 C 186.824219 59.816406 186.726562 59.746094 186.710938 59.640625 C 186.703125 59.539062 186.769531 59.441406 186.867188 59.425781 Z M 186.867188 59.425781 "/></g></g></g><g style="fill:#d00031;fill-opacity:1;"><g transform="translate(194.082995, 113.814701)"><path style="stroke:none" d="M 34.09375 0.609375 C 30.707031 1.546875 27.226562 1.835938 23.65625 1.484375 C 20.09375 1.140625 16.765625 0.148438 13.671875 -1.484375 C 10.578125 -3.117188 8.003906 -5.34375 5.953125 -8.15625 C 4.203125 -10.664062 2.84375 -13.570312 1.875 -16.875 C 0.914062 -20.175781 0.332031 -23.664062 0.125 -27.34375 C -0.0703125 -31.03125 0.0859375 -34.625 0.609375 -38.125 C 1.546875 -44.09375 3.519531 -49.132812 6.53125 -53.25 C 9.539062 -57.375 13.296875 -60.238281 17.796875 -61.84375 C 22.296875 -63.445312 27.265625 -63.460938 32.703125 -61.890625 C 36.316406 -60.890625 39.144531 -59.441406 41.1875 -57.546875 C 43.238281 -55.648438 44.703125 -53.515625 45.578125 -51.140625 C 46.453125 -48.773438 46.976562 -46.394531 47.15625 -44 C 47.332031 -41.601562 47.363281 -39.410156 47.25 -37.421875 C 47.1875 -35.734375 46.160156 -34.742188 44.171875 -34.453125 L 32.34375 -34.09375 C 31.46875 -33.976562 30.691406 -34.226562 30.015625 -34.84375 C 29.347656 -35.457031 28.984375 -36.203125 28.921875 -37.078125 C 28.921875 -37.429688 28.875 -38.0625 28.78125 -38.96875 C 28.695312 -39.875 28.523438 -40.78125 28.265625 -41.6875 C 28.003906 -42.59375 27.582031 -43.21875 27 -43.5625 C 25.25 -44.320312 23.90625 -44.144531 22.96875 -43.03125 C 22.03125 -41.925781 21.382812 -40.175781 21.03125 -37.78125 C 20.6875 -35.382812 20.515625 -32.640625 20.515625 -29.546875 L 20.515625 -29.109375 C 20.515625 -25.890625 20.96875 -23.226562 21.875 -21.125 C 22.78125 -19.019531 23.832031 -17.601562 25.03125 -16.875 C 26.226562 -16.144531 27.335938 -16.257812 28.359375 -17.21875 C 29.378906 -18.1875 30.035156 -20.160156 30.328125 -23.140625 C 30.328125 -23.546875 30.125 -23.75 29.71875 -23.75 L 27.265625 -23.75 C 26.441406 -23.75 26.03125 -24.160156 26.03125 -24.984375 L 26.03125 -28.578125 C 26.03125 -29.390625 26.441406 -29.796875 27.265625 -29.796875 L 47.421875 -29.796875 C 48.242188 -29.796875 48.65625 -29.390625 48.65625 -28.578125 C 48.65625 -23.253906 48.226562 -18.601562 47.375 -14.625 C 46.53125 -10.65625 45.054688 -7.382812 42.953125 -4.8125 C 40.847656 -2.25 37.894531 -0.441406 34.09375 0.609375 Z M 34.09375 0.609375 "/></g></g><g style="fill:#f98619;fill-opacity:1;"><g transform="translate(42.48376, 114.137731)"><path style="stroke:none" d="M 52.03125 0 L 41.390625 0 L 41.578125 -0.734375 C 41.640625 -1.109375 41.6875 -1.476562 41.71875 -1.84375 C 41.75 -2.21875 41.765625 -2.5625 41.765625 -2.875 C 41.765625 -4.96875 41.40625 -6.988281 40.6875 -8.9375 C 39.976562 -10.882812 38.914062 -12.75 37.5 -14.53125 C 35.894531 -12.5 33.890625 -10.878906 31.484375 -9.671875 C 29.078125 -8.472656 26.453125 -7.875 23.609375 -7.875 C 20.210938 -7.875 16.925781 -8.84375 13.75 -10.78125 C 10.570312 -12.726562 7.75 -15.460938 5.28125 -18.984375 C 3.175781 -22.066406 1.535156 -25.441406 0.359375 -29.109375 C -0.804688 -32.785156 -1.390625 -36.382812 -1.390625 -39.90625 C -1.390625 -42.25 -0.972656 -44.050781 -0.140625 -45.3125 C 0.691406 -46.582031 1.910156 -47.21875 3.515625 -47.21875 C 4.191406 -47.21875 4.867188 -47.046875 5.546875 -46.703125 C 6.234375 -46.367188 6.820312 -45.925781 7.3125 -45.375 C 6.382812 -44.195312 5.71875 -42.972656 5.3125 -41.703125 C 4.914062 -40.441406 4.71875 -38.976562 4.71875 -37.3125 C 4.71875 -31.882812 6.320312 -27.363281 9.53125 -23.75 C 12.75 -20.132812 16.765625 -18.328125 21.578125 -18.328125 C 25.335938 -18.328125 28.453125 -19.59375 30.921875 -22.125 C 33.390625 -24.65625 34.625 -27.742188 34.625 -31.390625 C 34.625 -32.441406 34.46875 -33.398438 34.15625 -34.265625 C 33.851562 -35.128906 33.425781 -35.898438 32.875 -36.578125 C 32.625 -34.171875 31.539062 -32.148438 29.625 -30.515625 C 27.71875 -28.878906 25.46875 -28.0625 22.875 -28.0625 C 19.601562 -28.0625 16.929688 -29.09375 14.859375 -31.15625 C 12.796875 -33.226562 11.765625 -35.835938 11.765625 -38.984375 C 11.765625 -41.816406 12.71875 -44.207031 14.625 -46.15625 C 16.539062 -48.101562 18.953125 -49.078125 21.859375 -49.078125 C 27.035156 -49.078125 31.582031 -46.820312 35.5 -42.3125 C 39.425781 -37.8125 41.390625 -32.566406 41.390625 -26.578125 C 41.390625 -26.140625 41.375 -25.6875 41.34375 -25.21875 C 41.3125 -24.757812 41.265625 -24.316406 41.203125 -23.890625 C 42.003906 -21.972656 42.632812 -20.132812 43.09375 -18.375 C 43.5625 -16.613281 43.890625 -14.75 44.078125 -12.78125 L 51.390625 -47.125 C 49.972656 -49.414062 48.351562 -50.882812 46.53125 -51.53125 C 44.707031 -52.175781 42.097656 -52.5 38.703125 -52.5 L -0.640625 -52.5 L -2.125 -62.125 L 32.5 -62.125 C 37.1875 -62.125 41.210938 -61.242188 44.578125 -59.484375 C 47.941406 -57.734375 50.550781 -55.097656 52.40625 -51.578125 C 53.394531 -54.910156 54.9375 -57.5 57.03125 -59.34375 C 59.132812 -61.195312 61.664062 -62.125 64.625 -62.125 C 67.53125 -62.125 70 -61.367188 72.03125 -59.859375 C 74.070312 -58.347656 75.710938 -56.082031 76.953125 -53.0625 L 81.390625 -73.890625 L 84.53125 -73.890625 C 84.53125 -69.441406 85.039062 -66.367188 86.0625 -64.671875 C 87.082031 -62.972656 88.890625 -62.125 91.484375 -62.125 L 92.40625 -62.125 L 93.890625 -52.5 L 93.234375 -52.5 C 92.191406 -52.5 91.238281 -52.929688 90.375 -53.796875 C 89.507812 -54.660156 88.796875 -55.894531 88.234375 -57.5 L 76.109375 0 L 65.46875 0 L 76.109375 -49.265625 C 75.054688 -50.242188 73.726562 -51.023438 72.125 -51.609375 C 70.519531 -52.203125 68.914062 -52.5 67.3125 -52.5 C 65.832031 -52.5 64.613281 -51.941406 63.65625 -50.828125 C 62.695312 -49.722656 61.972656 -48.023438 61.484375 -45.734375 Z M 52.03125 0 "/></g></g><g style="fill:#f98619;fill-opacity:1;"><g transform="translate(136.189624, 114.137731)"><path style="stroke:none" d="M 0.28125 -52.5 L -0.640625 -52.5 L -2.125 -62.125 L 17.6875 -62.125 C 22.070312 -62.125 25.851562 -61.367188 29.03125 -59.859375 C 32.207031 -58.347656 34.753906 -56.113281 36.671875 -53.15625 C 37.773438 -56.050781 39.375 -58.269531 41.46875 -59.8125 C 43.570312 -61.351562 46.171875 -62.125 49.265625 -62.125 L 52.03125 -62.125 L 53.515625 -52.5 L 51.109375 -52.5 C 49.628906 -52.5 48.410156 -51.941406 47.453125 -50.828125 C 46.492188 -49.722656 45.769531 -48.023438 45.28125 -45.734375 L 35.828125 0 L 25.1875 0 C 25.3125 -0.550781 25.40625 -1.117188 25.46875 -1.703125 C 25.53125 -2.296875 25.5625 -2.898438 25.5625 -3.515625 C 25.5625 -6.972656 24.910156 -10.0625 23.609375 -12.78125 C 22.316406 -15.5 20.648438 -17.628906 18.609375 -19.171875 C 17.617188 -18.367188 16.488281 -17.75 15.21875 -17.3125 C 13.957031 -16.882812 12.585938 -16.671875 11.109375 -16.671875 C 8.328125 -16.671875 6.054688 -17.441406 4.296875 -18.984375 C 2.546875 -20.523438 1.671875 -22.5625 1.671875 -25.09375 C 1.671875 -27.625 2.378906 -29.597656 3.796875 -31.015625 C 5.210938 -32.441406 7.15625 -33.15625 9.625 -33.15625 C 10.425781 -33.15625 11.226562 -33.0625 12.03125 -32.875 C 12.832031 -32.6875 13.632812 -32.40625 14.4375 -32.03125 C 15 -32.53125 15.429688 -33.148438 15.734375 -33.890625 C 16.046875 -34.628906 16.203125 -35.460938 16.203125 -36.390625 C 16.203125 -37.316406 15.722656 -38.269531 14.765625 -39.25 C 13.804688 -40.238281 11.753906 -41.722656 8.609375 -43.703125 C 6.140625 -45.242188 4.378906 -46.429688 3.328125 -47.265625 C 2.285156 -48.097656 1.421875 -48.882812 0.734375 -49.625 Z M 14.078125 -52.5 C 14.015625 -51.082031 14.257812 -49.691406 14.8125 -48.328125 C 15.363281 -46.972656 16.628906 -45.125 18.609375 -42.78125 C 20.648438 -40.25 21.992188 -38.210938 22.640625 -36.671875 C 23.285156 -35.128906 23.609375 -33.550781 23.609375 -31.9375 C 23.609375 -30.644531 23.515625 -29.394531 23.328125 -28.1875 C 23.148438 -26.988281 22.84375 -25.863281 22.40625 -24.8125 C 23.707031 -23.019531 24.816406 -21.015625 25.734375 -18.796875 C 26.660156 -16.578125 27.3125 -14.289062 27.6875 -11.9375 L 35.46875 -48.609375 C 34.164062 -50.210938 32.648438 -51.257812 30.921875 -51.75 C 29.191406 -52.25 26.847656 -52.5 23.890625 -52.5 Z M 14.078125 -52.5 "/></g></g><g style="fill:#f98619;fill-opacity:1;"><g transform="translate(189.527065, 114.137731)"><path style="stroke:none" d=""/></g></g><g style="fill:#d00031;fill-opacity:1;"><g transform="translate(106.932102, 145.59442)"><path style="stroke:none" d="M 7.671875 -6.171875 L 7.671875 -9.890625 L 9.625 -9.890625 L 9.625 0 L 7.671875 0 L 7.671875 -4.5 L 3.234375 -4.5 L 3.234375 0 L 1.28125 0 L 1.28125 -9.890625 L 3.234375 -9.890625 L 3.234375 -6.171875 Z M 7.671875 -6.171875 "/></g></g><g style="fill:#d00031;fill-opacity:1;"><g transform="translate(119.017265, 145.59442)"><path style="stroke:none" d="M 9.5 0 L 7.4375 0 L 6.6875 -2.28125 L 2.90625 -2.28125 L 2.15625 0 L 0.15625 0 L 3.5625 -9.890625 L 6.078125 -9.890625 Z M 4.703125 -7.828125 L 3.4375 -3.921875 L 6.15625 -3.921875 L 4.875 -7.828125 Z M 4.703125 -7.828125 "/></g></g><g style="fill:#d00031;fill-opacity:1;"><g transform="translate(129.831157, 145.59442)"><path style="stroke:none" d="M 5.875 0 L 3.515625 0 L 0.171875 -9.890625 L 2.25 -9.890625 L 4.65625 -2.515625 L 4.828125 -2.515625 L 7.1875 -9.890625 L 9.21875 -9.890625 Z M 5.875 0 "/></g></g><g style="fill:#d00031;fill-opacity:1;"><g transform="translate(140.394852, 145.59442)"><path style="stroke:none" d="M 3.234375 -4.34375 L 3.234375 -1.640625 L 7.96875 -1.640625 L 7.96875 0 L 1.28125 0 L 1.28125 -9.890625 L 7.859375 -9.890625 L 7.859375 -8.25 L 3.234375 -8.25 L 3.234375 -5.9375 L 7.28125 -5.9375 L 7.28125 -4.34375 Z M 3.234375 -4.34375 "/></g></g><g style="fill:#d00031;fill-opacity:1;"><g transform="translate(150.072715, 145.59442)"><path style="stroke:none" d=""/></g></g><g style="fill:#d00031;fill-opacity:1;"><g transform="translate(154.51673, 145.59442)"><path style="stroke:none" d="M 9.5 0 L 7.4375 0 L 6.6875 -2.28125 L 2.90625 -2.28125 L 2.15625 0 L 0.15625 0 L 3.5625 -9.890625 L 6.078125 -9.890625 Z M 4.703125 -7.828125 L 3.4375 -3.921875 L 6.15625 -3.921875 L 4.875 -7.828125 Z M 4.703125 -7.828125 "/></g></g><g style="fill:#d00031;fill-opacity:1;"><g transform="translate(165.330622, 145.59442)"><path style="stroke:none" d="M 3.1875 0 L 1.28125 0 L 1.28125 -9.890625 L 3.53125 -9.890625 L 7.5 -3.515625 L 7.671875 -3.546875 L 7.671875 -9.890625 L 9.5625 -9.890625 L 9.5625 0 L 7.546875 0 L 3.34375 -6.8125 L 3.1875 -6.78125 Z M 3.1875 0 "/></g></g><g style="fill:#d00031;fill-opacity:1;"><g transform="translate(185.409385, 143.771304)"><path style="stroke:none" d="M 14.734375 0.171875 L 14.515625 0.171875 L 13.390625 -0.640625 L 13.390625 -7.46875 C 13.171875 -8.03125 12.800781 -8.3125 12.28125 -8.3125 L 11.125 -8.3125 L 11.125 0.171875 L 10.90625 0.171875 L 9.796875 -0.640625 C 9.316406 -1.378906 8.664062 -1.992188 7.84375 -2.484375 C 7.582031 -2.085938 7.238281 -1.773438 6.8125 -1.546875 C 6.394531 -1.316406 5.898438 -1.203125 5.328125 -1.203125 C 4.085938 -1.203125 3.066406 -1.691406 2.265625 -2.671875 C 1.472656 -3.648438 0.800781 -5.160156 0.25 -7.203125 L 0.984375 -7.453125 C 1.503906 -5.984375 2.082031 -4.921875 2.71875 -4.265625 C 3.351562 -3.609375 4.148438 -3.28125 5.109375 -3.28125 C 5.773438 -3.28125 6.304688 -3.410156 6.703125 -3.671875 C 7.109375 -3.941406 7.3125 -4.378906 7.3125 -4.984375 C 7.3125 -5.410156 7.195312 -5.734375 6.96875 -5.953125 C 6.75 -6.171875 6.484375 -6.304688 6.171875 -6.359375 L 6.203125 -5.96875 C 6.203125 -4.976562 5.679688 -4.484375 4.640625 -4.484375 C 4.179688 -4.484375 3.800781 -4.628906 3.5 -4.921875 C 3.207031 -5.222656 3.0625 -5.613281 3.0625 -6.09375 C 3.0625 -6.5625 3.21875 -6.925781 3.53125 -7.1875 C 3.851562 -7.445312 4.265625 -7.597656 4.765625 -7.640625 C 4.535156 -7.890625 4.253906 -8.113281 3.921875 -8.3125 L 0.15625 -8.3125 L -0.46875 -9.5 L 12.171875 -9.5 C 12.390625 -9.5 12.613281 -9.382812 12.84375 -9.15625 C 13.070312 -8.9375 13.273438 -8.628906 13.453125 -8.234375 C 13.410156 -8.410156 13.390625 -8.789062 13.390625 -9.375 L 13.390625 -10.734375 L 13.453125 -10.734375 L 14.71875 -9.953125 L 14.71875 -9.5 L 15.703125 -9.5 L 16.328125 -8.3125 L 14.734375 -8.3125 Z M 9.796875 -8.3125 L 5.34375 -8.3125 C 5.539062 -8.082031 5.707031 -7.828125 5.84375 -7.546875 C 6.382812 -7.421875 6.84375 -7.1875 7.21875 -6.84375 C 7.59375 -6.5 7.875 -6.097656 8.0625 -5.640625 C 8.25 -5.179688 8.34375 -4.710938 8.34375 -4.234375 C 8.34375 -4.015625 8.320312 -3.796875 8.28125 -3.578125 C 8.863281 -3.066406 9.367188 -2.441406 9.796875 -1.703125 Z M 9.796875 -8.3125 "/></g></g><g style="fill:#d00031;fill-opacity:1;"><g transform="translate(202.574882, 143.771304)"><path style="stroke:none" d="M 7.84375 0.171875 L 7.640625 0.171875 L 6.5 -0.640625 L 6.5 -1.515625 C 6.007812 -2.335938 5.410156 -2.890625 4.703125 -3.171875 C 4.492188 -2.347656 3.929688 -1.9375 3.015625 -1.9375 C 2.484375 -1.9375 2.0625 -2.085938 1.75 -2.390625 C 1.4375 -2.703125 1.28125 -3.125 1.28125 -3.65625 C 1.28125 -4.132812 1.453125 -4.523438 1.796875 -4.828125 C 2.140625 -5.140625 2.585938 -5.296875 3.140625 -5.296875 C 3.359375 -5.296875 3.550781 -5.273438 3.71875 -5.234375 C 3.71875 -5.492188 3.613281 -5.726562 3.40625 -5.9375 C 3.195312 -6.15625 2.828125 -6.359375 2.296875 -6.546875 C 1.578125 -6.816406 1.09375 -7.066406 0.84375 -7.296875 C 0.601562 -7.523438 0.484375 -7.816406 0.484375 -8.171875 L 0.5 -8.3125 L 0.15625 -8.3125 L -0.46875 -9.5 L 8.8125 -9.5 L 9.4375 -8.3125 L 7.84375 -8.3125 Z M 6.5 -8.3125 L 2.390625 -8.3125 L 2.375 -8.15625 C 2.375 -7.945312 2.4375 -7.757812 2.5625 -7.59375 C 2.695312 -7.425781 2.9375 -7.242188 3.28125 -7.046875 C 3.820312 -6.742188 4.210938 -6.414062 4.453125 -6.0625 C 4.703125 -5.71875 4.835938 -5.28125 4.859375 -4.75 C 5.191406 -4.53125 5.507812 -4.222656 5.8125 -3.828125 C 6.113281 -3.441406 6.359375 -3.007812 6.546875 -2.53125 C 6.515625 -3.09375 6.5 -3.65625 6.5 -4.21875 Z M 6.5 -8.3125 "/></g></g><g style="fill:#d00031;fill-opacity:1;"><g transform="translate(220.771562, 144.752736)"><path style="stroke:none" d="M 5.390625 0.140625 C 4.484375 0.140625 3.679688 -0.0390625 2.984375 -0.40625 C 2.296875 -0.78125 1.753906 -1.347656 1.359375 -2.109375 C 0.972656 -2.867188 0.78125 -3.816406 0.78125 -4.953125 C 0.78125 -6.078125 0.972656 -7.019531 1.359375 -7.78125 C 1.753906 -8.539062 2.296875 -9.101562 2.984375 -9.46875 C 3.679688 -9.84375 4.484375 -10.03125 5.390625 -10.03125 C 6.296875 -10.03125 7.09375 -9.847656 7.78125 -9.484375 C 8.476562 -9.117188 9.019531 -8.550781 9.40625 -7.78125 C 9.800781 -7.019531 10 -6.078125 10 -4.953125 C 10 -3.816406 9.800781 -2.867188 9.40625 -2.109375 C 9.019531 -1.347656 8.476562 -0.78125 7.78125 -0.40625 C 7.09375 -0.0390625 6.296875 0.140625 5.390625 0.140625 Z M 5.390625 -1.5625 C 6.234375 -1.5625 6.875 -1.828125 7.3125 -2.359375 C 7.757812 -2.898438 7.984375 -3.765625 7.984375 -4.953125 C 7.984375 -6.128906 7.757812 -6.988281 7.3125 -7.53125 C 6.875 -8.070312 6.234375 -8.34375 5.390625 -8.34375 C 4.546875 -8.34375 3.898438 -8.070312 3.453125 -7.53125 C 3.015625 -6.988281 2.796875 -6.128906 2.796875 -4.953125 C 2.796875 -3.765625 3.015625 -2.898438 3.453125 -2.359375 C 3.898438 -1.828125 4.546875 -1.5625 5.390625 -1.5625 Z M 5.390625 -1.5625 "/></g></g><g style="fill:#d00031;fill-opacity:1;"><g transform="translate(232.721483, 144.752736)"><path style="stroke:none" d="M 3.1875 0 L 1.28125 0 L 1.28125 -9.890625 L 3.53125 -9.890625 L 7.5 -3.515625 L 7.671875 -3.546875 L 7.671875 -9.890625 L 9.5625 -9.890625 L 9.5625 0 L 7.546875 0 L 3.34375 -6.8125 L 3.1875 -6.78125 Z M 3.1875 0 "/></g></g><g style="fill:#d00031;fill-opacity:1;"><g transform="translate(244.739024, 144.752736)"><path style="stroke:none" d=""/></g></g><g style="fill:#d00031;fill-opacity:1;"><g transform="translate(249.18304, 144.752736)"><path style="stroke:none" d="M 7.9375 -9.890625 L 7.9375 -8.25 L 5.078125 -8.25 L 5.078125 0 L 3.125 0 L 3.125 -8.25 L 0.265625 -8.25 L 0.265625 -9.890625 Z M 7.9375 -9.890625 "/></g></g><g style="fill:#d00031;fill-opacity:1;"><g transform="translate(258.556609, 144.752736)"><path style="stroke:none" d="M 7.671875 -6.171875 L 7.671875 -9.890625 L 9.625 -9.890625 L 9.625 0 L 7.671875 0 L 7.671875 -4.5 L 3.234375 -4.5 L 3.234375 0 L 1.28125 0 L 1.28125 -9.890625 L 3.234375 -9.890625 L 3.234375 -6.171875 Z M 7.671875 -6.171875 "/></g></g><g style="fill:#d00031;fill-opacity:1;"><g transform="translate(270.641772, 144.752736)"><path style="stroke:none" d="M 3.234375 -4.34375 L 3.234375 -1.640625 L 7.96875 -1.640625 L 7.96875 0 L 1.28125 0 L 1.28125 -9.890625 L 7.859375 -9.890625 L 7.859375 -8.25 L 3.234375 -8.25 L 3.234375 -5.9375 L 7.28125 -5.9375 L 7.28125 -4.34375 Z M 3.234375 -4.34375 "/></g></g><g style="fill:#d00031;fill-opacity:1;"><g transform="translate(280.319635, 144.752736)"><path style="stroke:none" d=""/></g></g><g style="fill:#d00031;fill-opacity:1;"><g transform="translate(284.76365, 144.752736)"><path style="stroke:none" d="M 4.8125 0.140625 C 3.976562 0.140625 3.257812 -0.046875 2.65625 -0.421875 C 2.0625 -0.796875 1.597656 -1.363281 1.265625 -2.125 C 0.941406 -2.882812 0.78125 -3.828125 0.78125 -4.953125 C 0.78125 -6.078125 0.972656 -7.019531 1.359375 -7.78125 C 1.753906 -8.539062 2.300781 -9.101562 3 -9.46875 C 3.695312 -9.84375 4.503906 -10.03125 5.421875 -10.03125 C 6.367188 -10.03125 7.175781 -9.851562 7.84375 -9.5 C 8.519531 -9.15625 8.988281 -8.632812 9.25 -7.9375 L 7.828125 -7.078125 L 7.65625 -7.078125 C 7.457031 -7.515625 7.171875 -7.832031 6.796875 -8.03125 C 6.429688 -8.238281 5.972656 -8.34375 5.421875 -8.34375 C 4.566406 -8.34375 3.914062 -8.070312 3.46875 -7.53125 C 3.019531 -7 2.796875 -6.140625 2.796875 -4.953125 C 2.796875 -3.753906 3.003906 -2.882812 3.421875 -2.34375 C 3.847656 -1.800781 4.472656 -1.53125 5.296875 -1.53125 C 6.015625 -1.53125 6.539062 -1.6875 6.875 -2 C 7.21875 -2.320312 7.390625 -2.800781 7.390625 -3.4375 L 7.390625 -3.875 L 5.046875 -3.875 L 5.046875 -5.46875 L 9.328125 -5.46875 L 9.328125 0 L 7.453125 0 L 7.453125 -1.328125 L 7.3125 -1.34375 C 7.113281 -0.875 6.804688 -0.507812 6.390625 -0.25 C 5.972656 0.0078125 5.445312 0.140625 4.8125 0.140625 Z M 4.8125 0.140625 "/></g></g><g style="fill:#d00031;fill-opacity:1;"><g transform="translate(296.25375, 144.752736)"><path style="stroke:none" d="M 5.390625 0.140625 C 4.484375 0.140625 3.679688 -0.0390625 2.984375 -0.40625 C 2.296875 -0.78125 1.753906 -1.347656 1.359375 -2.109375 C 0.972656 -2.867188 0.78125 -3.816406 0.78125 -4.953125 C 0.78125 -6.078125 0.972656 -7.019531 1.359375 -7.78125 C 1.753906 -8.539062 2.296875 -9.101562 2.984375 -9.46875 C 3.679688 -9.84375 4.484375 -10.03125 5.390625 -10.03125 C 6.296875 -10.03125 7.09375 -9.847656 7.78125 -9.484375 C 8.476562 -9.117188 9.019531 -8.550781 9.40625 -7.78125 C 9.800781 -7.019531 10 -6.078125 10 -4.953125 C 10 -3.816406 9.800781 -2.867188 9.40625 -2.109375 C 9.019531 -1.347656 8.476562 -0.78125 7.78125 -0.40625 C 7.09375 -0.0390625 6.296875 0.140625 5.390625 0.140625 Z M 5.390625 -1.5625 C 6.234375 -1.5625 6.875 -1.828125 7.3125 -2.359375 C 7.757812 -2.898438 7.984375 -3.765625 7.984375 -4.953125 C 7.984375 -6.128906 7.757812 -6.988281 7.3125 -7.53125 C 6.875 -8.070312 6.234375 -8.34375 5.390625 -8.34375 C 4.546875 -8.34375 3.898438 -8.070312 3.453125 -7.53125 C 3.015625 -6.988281 2.796875 -6.128906 2.796875 -4.953125 C 2.796875 -3.765625 3.015625 -2.898438 3.453125 -2.359375 C 3.898438 -1.828125 4.546875 -1.5625 5.390625 -1.5625 Z M 5.390625 -1.5625 "/></g></g></g></svg>